<?xml version="1.0" encoding="UTF-8"?>
<!DOCTYPE svg PUBLIC "-//W3C//DTD SVG 1.1//EN" "http://www.w3.org/Graphics/SVG/1.1/DTD/svg11.dtd">
<!-- Creator: CorelDRAW 2018 (64-Bit) -->
<svg xmlns="http://www.w3.org/2000/svg" xml:space="preserve" width="100mm" height="130mm" version="1.1" style="shape-rendering:geometricPrecision; text-rendering:geometricPrecision; image-rendering:optimizeQuality; fill-rule:evenodd; clip-rule:evenodd"
viewBox="0 0 10000 13000"
 xmlns:xlink="http://www.w3.org/1999/xlink">
 <defs>
  <style type="text/css">
   <![CDATA[
    .fil0 {fill:#000105}
    .fil1 {fill:#FDFDFD}
   ]]>
  </style>
 </defs>
 <g id="Слой_x0020_1">
  <metadata id="CorelCorpID_0Corel-Layer"/>
  <g id="_1435484889584">
   <path class="fil0" d="M4519.99 8980.41c501.24,-130.76 423.84,-182.2 945.74,1.14 -28.42,77.54 -79.69,111.42 -177.33,160.88 -220.35,111.62 -478.26,83.12 -682.08,-59.08 -77.03,-53.75 -65.76,-74.66 -86.33,-102.94zm-3744.17 -1994.27c83.54,-173.3 348.47,-422.87 526.12,-532.54 225.6,-139.28 446.54,-314.81 674.92,-434 -24.53,155.69 -85.49,284.49 -103.87,460.48 -19.14,183.32 -5.83,377.19 17.43,557.25 31.68,245.21 131.75,755.02 260.03,913.59 20.06,-163.57 33.61,-328.78 88.17,-474.36 48.87,-130.4 152.34,-288.43 238.53,-331.49 268.21,1061.9 924.3,1150.86 1216.26,1832.85 69.76,162.94 221.86,640.84 292.97,741.93 65.48,-90.23 67.14,-234.1 151.93,-313.8 146.59,154.76 430.09,1121.83 556.8,1395.17 2.78,-201 -145.6,-533.31 -16.06,-689.09 201.88,266.08 141.49,1014.92 316.73,1334.42 138.1,-305.15 135.11,-1133.92 310.54,-1328.33 109.99,206.85 -18.46,459.33 -15.46,683.46 145.29,-308.66 385.91,-1195.61 556.2,-1396.29 111.92,122.55 84.03,210.02 150.84,314 80.53,-111 206.73,-542.92 293.71,-720.65 132.73,-271.2 241.32,-429.88 418.37,-597.2 324.73,-306.88 665.24,-642.56 798.55,-1257.73 224.23,114.7 296.69,471.43 324.88,808.05 125.46,-136.89 227.3,-665.72 259.95,-890.63 70.83,-487.97 6.29,-615.45 -85.2,-1042.15 159.53,79.07 860.7,541.42 973.32,655.74 43.26,43.93 199.13,240.99 228.78,312.12 20.16,-570.01 -834.61,-1488.46 -902.79,-1873.53 325.97,138.53 751.64,686.5 939.5,1036.25 227.31,423.2 473.17,957.31 457.7,1533.93 -260.69,-115.52 -115.78,-564.36 -1282.14,-686.31 39.38,466.8 77.25,793.05 -56.7,1244.9 -80.93,272.96 -289.29,818.05 -464.73,917.58 3.57,-296.7 50.73,-513.27 -67.15,-774.65 -367.99,53.04 -829.1,558.29 -1046.99,828.73 -261.63,324.74 -640.34,1010.24 -729.51,1111.13 -28.71,32.48 -4.92,12.38 -37.35,35.26 -105.05,-233.57 -5.09,-304.19 -216.55,-506.06 -80.09,415.55 -109.47,849.5 -213.41,1255.46 -62.76,245.12 -267.57,965.29 -391.97,1107.62l-35.65 -57.75c-8.69,-19.98 -18.12,-59.71 -24.98,-83.42l-72.24 -131.87c-5.67,288.11 10.87,459.08 -57.34,729.81 -124.96,-116.58 -81.68,-580.6 -87.04,-726.81 -41.78,36.21 -48.09,52.63 -71.59,131.75 -20.76,69.89 -19.77,96.35 -61.62,147.15 -154.81,-277.6 -298.09,-750.25 -386.76,-1100.12 -107.04,-422.34 -128.47,-850.2 -218.16,-1272.44 -108.42,90.12 -148.29,195.11 -177.42,343.32 -4.88,24.87 -7.66,50.16 -12.84,73.99l-20.52 71.98c-1.48,4.49 -4.01,12.07 -6.74,17.8 -4.58,-3.64 -11.18,-15.48 -13.14,-11.65l-85.47 -116.31c-29.08,-50.94 -54.18,-94.57 -86.51,-152.24 -58.61,-104.55 -113.8,-197.46 -175.01,-300.43 -254.47,-428.06 -1018.24,-1358.95 -1453.01,-1392.5 -110.19,262.06 -78.19,475.63 -64.29,774.45 -161.81,-82.46 -401.19,-660.22 -470.9,-920.08 -116.49,-434.21 -92.79,-790.45 -51.99,-1244.31 -211.82,22.31 -626.64,99.08 -780.5,193.28 -280.34,171.64 -336.11,373.19 -498.51,501.05 -60.15,-671.02 552.63,-1952.96 1099.76,-2365.33 84.1,-63.38 225.7,-170.79 291.94,-209.42 -55.39,358.02 -913.81,1292.6 -901.82,1868.99zm1463.85 -4678.22c-4.08,-3.95 -10.1,-15.91 -11.79,-12.33l-39.73 -52.85c-184.33,-323.86 -89.3,-1148.39 263.02,-1366.72l154.3 127.48c56.8,48.86 95.59,79.38 145.81,134.68 437.18,481.43 448.17,1007.02 546.38,1142.8l58.37 -245.64 86.81 99.51c100.71,148.9 462.43,635.06 595.66,693.05l-4.89 -186.68c245.02,183.83 656.5,155.58 969.89,157 173.76,0.65 357.03,13.31 524.66,-9.48 208.86,-28.41 270.8,-93.89 430.49,-146.43l1.8 198.47c114.18,-79.33 564.92,-698.4 661.35,-810.19 40.87,79.46 30.46,171.74 65.48,252.87 58.45,-78.45 99.62,-449.85 314.7,-814.78 159.45,-270.52 208.92,-273.37 385.74,-457.1 60.33,-62.69 89.53,-101.94 146.47,-133.23 280.54,285.83 401.14,594.9 347.28,1057.45 -19.93,171.22 -68.72,240.15 -109.23,372.95 -45.62,-57.83 -42.03,-134.86 -55.13,-208.93 -27.38,-154.82 -118.15,-468.79 -293.22,-510.21 12.79,244.27 309.01,488.72 -146.14,1192.98 -62.83,97.21 -207.93,229.85 -241.93,301.72 400.4,-63.78 505.43,-494.02 579.87,-627.46 263.6,122.81 509.75,607.14 549.08,979.28l-86.13 31.3c64.51,108.64 139.1,163.74 176.96,335.69 -90.1,-23.51 -113.35,-53.13 -200.29,-51.91 12.94,107.77 -12,-13.1 13.77,49.94 19.33,47.3 -2.61,-3.6 21.81,43.47 52.04,100.33 73.74,176.21 59.99,308.84 -162.43,-114.8 -748.09,-746.34 -1011.54,-709.58 63.75,12.03 359.06,418.31 403.12,495.31 319,557.47 716.67,1410.9 801.87,2064.41 -204.88,-87.4 -567.35,-512.83 -846.4,-494.86 112.6,259.51 261.72,563.45 219.19,915.11 -65.11,-31.29 -123.48,-90.84 -217.13,-90.43 117.33,155.33 226.79,408.21 198.15,677.03 -164.69,-129.29 -325.12,-361.52 -658.75,-383.02 106.48,353.83 272.5,532.99 23.24,1044.99 -127.88,262.69 -393.2,578.83 -603.41,701.32 50.79,-136.65 103.13,-244.08 112.31,-423.69 4.64,-90.69 -1.04,-178.09 -28.66,-265.04 -29.76,-93.71 -54.36,-131.42 -117.63,-173.15 2.41,564.06 -102.93,1151.54 -699.34,1247.66 -210.31,33.9 -436.52,21.71 -528.98,-118.16 80.41,-186.46 291.52,-137.07 278.9,-410.97 -116.36,-63.76 -179.02,-7.22 -233.53,-141.87l31.91 -65.38c142.57,-45.29 267.02,24.45 446.06,12.12 112.69,-212.81 87.14,-452.98 -70.3,-602.6 -183.83,-174.7 -333.11,-168.99 -646.46,-171.12 -317.11,-2.15 -452.35,-36.16 -652.78,164.73 -160.78,161.16 -216.52,368.19 -85.41,608.79 240,17.78 380.95,-117.73 475.53,65.55 -46.88,102.68 -127.3,89.75 -235.55,121.32 15.29,308.71 203.77,223.57 283.64,419.43 -184.47,218.95 -767.38,178.09 -945.68,-94.24 -242.46,-370.3 -289.23,-497.5 -283.03,-1033.89 -54.8,33.65 -29.89,7.32 -72.92,67.05 -64.68,89.74 -84.79,225.87 -75.76,343.03 12.77,165.86 83.43,298.52 111.53,449.4 -241.07,-217.04 -417.58,-342.04 -598.23,-680.58 -219.68,-411.73 -89.61,-689.36 22.68,-1065.89 -351.56,31.65 -480.86,254.31 -659.03,383.22 -36.61,-301.11 96.53,-495 198.26,-678.61 -102.63,8.29 -149.04,61.64 -216.75,91.28 -42.29,-352.28 107.59,-653.39 219.95,-914.93 -206,1.04 -569.98,286.2 -736.22,424.35 -50.93,42.32 -48.23,46.57 -112.09,74.36 86.02,-633.11 467.54,-1489.6 789.44,-2034.82 63.12,-106.91 115.8,-188.22 193.08,-283.39 66.23,-81.57 178.71,-186.77 215.55,-254.37 -434.32,75.65 -802.23,635.8 -1007.06,703.79 6.18,-246.88 56.82,-305.14 165.2,-429.39l-265.26 99.73c36.17,-170.5 110.86,-231.71 170.98,-335.64 -55.47,-45.5 -34.19,-9.73 -78.43,-64.89 48.13,-399.77 324.34,-837.7 539.52,-945.81 99.94,131.72 175.91,553.03 587,623.5 -43.04,-87.76 -173.27,-199.23 -246.14,-299.67 -324.32,-447.14 -285.57,-797.85 -112.28,-1228.58 -230.97,125.74 -311.5,401.25 -353.57,751.55zm-222.58 1398.68c23.32,-13.31 -23.04,-11.79 -7.8,-3.94 0.44,0.23 -28.12,24.44 7.8,3.94zm6054.42 16.92l0 0zm-636.18 -2160.41c-3.1,-3.89 -11.11,4.91 -11.13,9.9 -0.01,2.04 -4.84,4.24 -4.59,4.02 0.92,-0.8 53.41,33.28 15.72,-13.92zm-2517.64 11425.85l152.3 0 471.85 -1148.86c73.97,-196.67 147.78,-382.2 218.74,-581.34 40.37,-113.3 159.65,-578.24 192.17,-631.43 84.87,279.88 126.78,968.46 268.46,1138.67 27.86,-788.88 18.22,-1330.59 335.32,-1983.17 202.12,-415.94 764.75,-1073.5 1174.3,-1151.08 9.87,197.9 18,372.14 -1.89,571.83 -18.48,185.42 -63.22,377.6 -66.74,561.39 476.83,-255.57 923.95,-1126.98 1126.13,-1686.31 53.37,-147.65 166.62,-653.37 216.69,-734.6 420.32,126.37 833.15,818.82 994.97,966.79l0 -91.72c-3.01,-5.36 -6.18,-12.56 -7.89,-16.67 -1.7,-4.09 -5.54,-11.63 -7.53,-16.71l-22.2 -69.66c-228.1,-876.69 -289.82,-1960.6 -776.3,-2640.75 -256.26,-358.29 -136.65,-211.5 -272.39,-613.76 -303.62,-899.76 -473.83,-657.52 -497.19,-1281.45 -11.44,-305.52 -25.57,-515.81 -64.51,-807.44 138.1,46.73 227.11,136.13 358.49,179.3 -64.21,-142.21 -197.13,-267.31 -275.68,-401.9 -81.81,-140.16 -160.06,-276.4 -223.06,-447.71 -108.51,-295.06 -183.12,-870.11 -71.81,-1176.6 94.07,51.01 164.26,153.95 207.94,286.5 16.76,-271.05 -136.3,-471.03 -254.21,-635.35 -211.82,-295.18 -372.47,-348.78 -254.47,-565.89l-130.27 0c-54.48,30.55 -110.97,39.82 -181.66,78.99 -107.59,59.63 -327.7,268.79 -396.97,358.72l-71.94 -85.87c-84.26,146.93 -179.68,626.36 -379.44,1020.95 -75.09,148.33 -180.53,308.46 -273.02,440.51 -107.62,153.65 -153.66,308.11 -326.3,373.08l47.67 -224.98c-337.53,114.02 -349.07,412.99 -413.48,500.84 -171.32,233.66 -1288.79,239.86 -1451.17,-12.66 -39.68,-61.71 -67.64,-377.88 -402.1,-484.11l44.42 220c-200.04,-106.06 -456.01,-552.99 -599.28,-812.02 -185.01,-334.49 -287.77,-891.91 -378.61,-1018.07 -61.64,101.57 18.54,45.35 -70.77,83.59 -63.97,-105.89 -168.57,-172.85 -260.28,-259.1 -123.27,-115.92 -190.64,-104.79 -320.3,-179.87l-127.81 0c139.14,258.4 -88.49,284.89 -265.1,556.2 -86.92,133.53 -255.38,427.92 -243.5,644.24 34.61,-115.33 125.86,-261.34 215.04,-280.64 229.21,1206.9 -444.1,1715.89 -579.69,2021.4 132.66,-45.13 221.24,-134.35 360.28,-178.23 -45.73,296.91 -52.55,521.01 -65.97,827.8 -28.52,652.1 -227.96,375.19 -501.39,1276.55 -28.99,95.58 -62.18,243.65 -98.2,334.76 -38.13,96.48 -127.87,196.51 -179.03,274.52 -389.75,594.33 -495.68,1304.42 -639.05,2022.7 -48.52,243.01 -122.29,527.16 -151.26,775.8l30.85 -23.42c114.16,-104.66 511.47,-767.13 949.5,-919.33 3.13,4.62 6.84,6.7 7.89,14.76l203.25 704.11c80.54,232.79 181.1,456.08 289.26,662.43 177.03,337.72 577.49,933.21 844.42,1038.39 -15.73,-465.36 -102.66,-407.56 -69.17,-1131.07 215.45,46.01 599.96,365.02 700.96,476.82 393.41,435.4 657.96,965.03 754.51,1582.46 60.57,387.31 24.97,729.41 57.1,1107.37 154.02,-179.1 171.11,-938.23 283.93,-1147.98 112.97,541.82 411.59,1251.82 627.13,1775.21 75.18,182.58 175.77,381.78 238.06,563.07z"/>
   <path class="fil1" d="M4592.53 4739.05c99.23,-91.24 187.7,-361.7 222.86,-524.17l97.19 -643.79 83.29 217.86 68.28 -172.18c15.86,-29.84 16.22,-28.13 30.98,-45.01 33.87,444.14 79.36,861.76 287.85,1176.76 92.4,-43.28 136.32,-150.24 192.24,-249.52l60.46 -84.78c-9.32,248.1 -147.86,852.32 -4.92,1040.15 97.04,-44.36 76.5,3.94 52.28,-104.08 -45.64,-203.55 -58.59,-258.94 -3.63,-511.56 45.57,-209.42 139.81,-395.45 180.82,-576.15 125.96,27.26 489.84,277.06 809.92,139.32 -55.06,-132.54 -175.55,-110.05 -279.46,-190.92 460.71,-10.86 996.8,425.05 961.77,879.19 -73.19,-153.88 -98.92,-180.51 -176.71,-291.13 72.14,249.96 173.77,390.45 132.97,717.67 -122.31,55.76 -181.45,48.29 -317.96,34.35 50.97,198.19 155.21,223.16 296.62,324.53 -146.29,135.26 -412.15,93.75 -620.92,76.58 52.77,182.24 182.72,104.73 297.25,227.04 -436.95,26.93 -563.51,-214.57 -810.8,-170.55 -192.58,233.54 46.25,772.91 -132.81,1007.1 -43.72,-73.88 -86.89,-671.89 -430.71,-1116.79 -121.21,53.23 -107.28,146.65 -173.33,256.81 -54.35,90.65 -103.36,152.67 -159.9,250.68 -84.95,147.26 -180.05,444.19 -272.32,543.39l-393.41 -815.33c-20.3,-43.9 -45.39,-87.29 -69.3,-125.54 -42.95,-68.69 -35.06,-68.68 -101.64,-99.52 -120.4,106.66 -243.73,334.31 -312.9,536.88 -82.63,242.04 -91.79,430.93 -129.81,696.46 -40.45,-207.11 -77.69,-351.22 -66.01,-577.91 11.8,-229.18 52.96,-409.3 -68.83,-562.26 -283.7,-25.24 -447.91,249.87 -821.7,165.97 141.01,-103.01 252.4,-51.65 300.25,-216.67 -228.76,21.86 -443.66,55.96 -622.61,-73.68 66.13,-48.38 131.52,-76.65 189.15,-132.51 82.04,-79.51 63.01,-99.21 114.2,-187.05 -83.89,-6.12 -170.66,15.16 -261.57,-17.58 -208.01,-74.95 40.68,-631.86 71.59,-743.09 -142.22,200.23 -55.24,32.55 -178.66,293.21 -16.82,-456.78 494.2,-888.56 964.17,-880.62 -106.01,91.43 -258.01,58.28 -277.33,204.18 588.6,55.52 498.15,-74.65 807.13,-152.38 41.71,177.61 146.76,324.73 179.34,534.87 16.84,108.49 11.19,229.86 10.2,340.09 -1.27,140.17 -23.34,241.15 49.65,310.25 141.65,-405.33 -0.56,-651.48 -14.6,-1049.26 99.88,81.84 145.21,239.7 241.38,340.69zm3478.98 -1015.53l0 0zm-6062.22 -20.86c-15.24,-7.85 31.12,-9.37 7.8,3.94 -35.92,20.5 -7.36,-3.71 -7.8,-3.94zm5414.91 -2129.65c0.02,-4.99 8.03,-13.79 11.13,-9.9 37.69,47.2 -14.8,13.12 -15.72,13.92 -0.25,0.22 4.58,-1.98 4.59,-4.02zm-2181.91 6515.51c54.51,134.65 117.17,78.11 233.53,141.87 12.62,273.9 -198.49,224.51 -278.9,410.97 92.46,139.87 318.67,152.06 528.98,118.16 596.41,-96.12 701.75,-683.6 699.34,-1247.66 63.27,41.73 87.87,79.44 117.63,173.15 27.62,86.95 33.3,174.35 28.66,265.04 -9.18,179.61 -61.52,287.04 -112.31,423.69 210.21,-122.49 475.53,-438.63 603.41,-701.32 249.26,-512 83.24,-691.16 -23.24,-1044.99 333.63,21.5 494.06,253.73 658.75,383.02 28.64,-268.82 -80.82,-521.7 -198.15,-677.03 93.65,-0.41 152.02,59.14 217.13,90.43 42.53,-351.66 -106.59,-655.6 -219.19,-915.11 279.05,-17.97 641.52,407.46 846.4,494.86 -85.2,-653.51 -482.87,-1506.94 -801.87,-2064.41 -44.06,-77 -339.37,-483.28 -403.12,-495.31 263.45,-36.76 849.11,594.78 1011.54,709.58 13.75,-132.63 -7.95,-208.51 -59.99,-308.84 -24.42,-47.07 -2.48,3.83 -21.81,-43.47 -25.77,-63.04 -0.83,57.83 -13.77,-49.94 86.94,-1.22 110.19,28.4 200.29,51.91 -37.86,-171.95 -112.45,-227.05 -176.96,-335.69l86.13 -31.3c-39.33,-372.14 -285.48,-856.47 -549.08,-979.28 -74.44,133.44 -179.47,563.68 -579.87,627.46 34,-71.87 179.1,-204.51 241.93,-301.72 455.15,-704.26 158.93,-948.71 146.14,-1192.98 175.07,41.42 265.84,355.39 293.22,510.21 13.1,74.07 9.51,151.1 55.13,208.93 40.51,-132.8 89.3,-201.73 109.23,-372.95 53.86,-462.55 -66.74,-771.62 -347.28,-1057.45 -56.94,31.29 -86.14,70.54 -146.47,133.23 -176.82,183.73 -226.29,186.58 -385.74,457.1 -215.08,364.93 -256.25,736.33 -314.7,814.78 -35.02,-81.13 -24.61,-173.41 -65.48,-252.87 -96.43,111.79 -547.17,730.86 -661.35,810.19l-1.8 -198.47c-159.69,52.54 -221.63,118.02 -430.49,146.43 -167.63,22.79 -350.9,10.13 -524.66,9.48 -313.39,-1.42 -724.87,26.83 -969.89,-157l4.89 186.68c-133.23,-57.99 -494.95,-544.15 -595.66,-693.05l-86.81 -99.51 -58.37 245.64c-98.21,-135.78 -109.2,-661.37 -546.38,-1142.8 -50.22,-55.3 -89.01,-85.82 -145.81,-134.68l-154.3 -127.48c-352.32,218.33 -447.35,1042.86 -263.02,1366.72l39.73 52.85c1.69,-3.58 7.71,8.38 11.79,12.33 42.07,-350.3 122.6,-625.81 353.57,-751.55 -173.29,430.73 -212.04,781.44 112.28,1228.58 72.87,100.44 203.1,211.91 246.14,299.67 -411.09,-70.47 -487.06,-491.78 -587,-623.5 -215.18,108.11 -491.39,546.04 -539.52,945.81 44.24,55.16 22.96,19.39 78.43,64.89 -60.12,103.93 -134.81,165.14 -170.98,335.64l265.26 -99.73c-108.38,124.25 -159.02,182.51 -165.2,429.39 204.83,-67.99 572.74,-628.14 1007.06,-703.79 -36.84,67.6 -149.32,172.8 -215.55,254.37 -77.28,95.17 -129.96,176.48 -193.08,283.39 -321.9,545.22 -703.42,1401.71 -789.44,2034.82 63.86,-27.79 61.16,-32.04 112.09,-74.36 166.24,-138.15 530.22,-423.31 736.22,-424.35 -112.36,261.54 -262.24,562.65 -219.95,914.93 67.71,-29.64 114.12,-82.99 216.75,-91.28 -101.73,183.61 -234.87,377.5 -198.26,678.61 178.17,-128.91 307.47,-351.57 659.03,-383.22 -112.29,376.53 -242.36,654.16 -22.68,1065.89 180.65,338.54 357.16,463.54 598.23,680.58 -28.1,-150.88 -98.76,-283.54 -111.53,-449.4 -9.03,-117.16 11.08,-253.29 75.76,-343.03 43.03,-59.73 18.12,-33.4 72.92,-67.05 -6.2,536.39 40.57,663.59 283.03,1033.89 178.3,272.33 761.21,313.19 945.68,94.24 -79.87,-195.86 -268.35,-110.72 -283.64,-419.43 108.25,-31.57 188.67,-18.64 235.55,-121.32 -94.58,-183.28 -235.53,-47.77 -475.53,-65.55 -131.11,-240.6 -75.37,-447.63 85.41,-608.79 200.43,-200.89 335.67,-166.88 652.78,-164.73 313.35,2.13 462.63,-3.58 646.46,171.12 157.44,149.62 182.99,389.79 70.3,602.6 -179.04,12.33 -303.49,-57.41 -446.06,-12.12l-31.91 65.38z"/>
   <path class="fil1" d="M775.82 6986.14c-11.99,-576.39 846.43,-1510.97 901.82,-1868.99 -66.24,38.63 -207.84,146.04 -291.94,209.42 -547.13,412.37 -1159.91,1694.31 -1099.76,2365.33 162.4,-127.86 218.17,-329.41 498.51,-501.05 153.86,-94.2 568.68,-170.97 780.5,-193.28 -40.8,453.86 -64.5,810.1 51.99,1244.31 69.71,259.86 309.09,837.62 470.9,920.08 -13.9,-298.82 -45.9,-512.39 64.29,-774.45 434.77,33.55 1198.54,964.44 1453.01,1392.5 61.21,102.97 116.4,195.88 175.01,300.43 32.33,57.67 57.43,101.3 86.51,152.24l85.47 116.31c1.96,-3.83 8.56,8.01 13.14,11.65 2.73,-5.73 5.26,-13.31 6.74,-17.8l20.52 -71.98c5.18,-23.83 7.96,-49.12 12.84,-73.99 29.13,-148.21 69,-253.2 177.42,-343.32 89.69,422.24 111.12,850.1 218.16,1272.44 88.67,349.87 231.95,822.52 386.76,1100.12 41.85,-50.8 40.86,-77.26 61.62,-147.15 23.5,-79.12 29.81,-95.54 71.59,-131.75 5.36,146.21 -37.92,610.23 87.04,726.81 68.21,-270.73 51.67,-441.7 57.34,-729.81l72.24 131.87c6.86,23.71 16.29,63.44 24.98,83.42l35.65 57.75c124.4,-142.33 329.21,-862.5 391.97,-1107.62 103.94,-405.96 133.32,-839.91 213.41,-1255.46 211.46,201.87 111.5,272.49 216.55,506.06 32.43,-22.88 8.64,-2.78 37.35,-35.26 89.17,-100.89 467.88,-786.39 729.51,-1111.13 217.89,-270.44 679,-775.69 1046.99,-828.73 117.88,261.38 70.72,477.95 67.15,774.65 175.44,-99.53 383.8,-644.62 464.73,-917.58 133.95,-451.85 96.08,-778.1 56.7,-1244.9 1166.36,121.95 1021.45,570.79 1282.14,686.31 15.47,-576.62 -230.39,-1110.73 -457.7,-1533.93 -187.86,-349.75 -613.53,-897.72 -939.5,-1036.25 68.18,385.07 922.95,1303.52 902.79,1873.53 -29.65,-71.13 -185.52,-268.19 -228.78,-312.12 -112.62,-114.32 -813.79,-576.67 -973.32,-655.74 91.49,426.7 156.03,554.18 85.2,1042.15 -32.65,224.91 -134.49,753.74 -259.95,890.63 -28.19,-336.62 -100.65,-693.35 -324.88,-808.05 -133.31,615.17 -473.82,950.85 -798.55,1257.73 -177.05,167.32 -285.64,326 -418.37,597.2 -86.98,177.73 -213.18,609.65 -293.71,720.65 -66.81,-103.98 -38.92,-191.45 -150.84,-314 -170.29,200.68 -410.91,1087.63 -556.2,1396.29 -3,-224.13 125.45,-476.61 15.46,-683.46 -175.43,194.41 -172.44,1023.18 -310.54,1328.33 -175.24,-319.5 -114.85,-1068.34 -316.73,-1334.42 -129.54,155.78 18.84,488.09 16.06,689.09 -126.71,-273.34 -410.21,-1240.41 -556.8,-1395.17 -84.79,79.7 -86.45,223.57 -151.93,313.8 -71.11,-101.09 -223.21,-578.99 -292.97,-741.93 -291.96,-681.99 -948.05,-770.95 -1216.26,-1832.85 -86.19,43.06 -189.66,201.09 -238.53,331.49 -54.56,145.58 -68.11,310.79 -88.17,474.36 -128.28,-158.57 -228.35,-668.38 -260.03,-913.59 -23.26,-180.06 -36.57,-373.93 -17.43,-557.25 18.38,-175.99 79.34,-304.79 103.87,-460.48 -228.38,119.19 -449.32,294.72 -674.92,434 -177.65,109.67 -442.58,359.24 -526.12,532.54z"/>
   <path class="fil0" d="M6328.81 5222.61c42.17,-64.12 43.55,-130.31 81.04,-193.73l178.37 32.26c3,187.9 -84.61,218.85 -201.38,291.47 -356.39,221.59 -442.08,-203.47 -161.7,-263.79 -29.34,108.27 -14.26,13.46 -30.87,70.58 -22.47,77.25 49.02,67.97 134.54,63.21zm-3157.02 -18.72c155.06,231.73 511.66,344.26 902.96,364 -38.49,95.43 -48.82,126.41 -142.32,164.46l285.09 -29.24c-83.06,168.13 -349.48,277.3 -463.52,59.13 -257.43,29.24 -352.01,90.58 -648.47,18.45 87.37,-43.5 160.35,-47.91 210.38,-108.09 -156.52,-153.12 -188.1,-98.77 -286.87,-377.3l-116.56 86.81c-22.57,-161.38 -39.69,-179.59 66.53,-257.96 62.27,-45.96 134.77,-109.32 241.64,-104.75 87.42,108.44 32.34,101.66 -48.86,184.49zm3595.27 -184.01c101.17,-10.17 179.46,55.76 241.68,101.93 102.2,75.84 84.55,112.2 70.79,257.95 -68.46,-33.44 -59.13,-42.43 -106.57,-82.97 -51.26,54.65 -72.24,156.65 -121.88,217.33 -68.44,83.65 -140.48,84.83 -181.94,186.49 100.7,42.1 145.1,26.42 203.33,97.66 -304.72,40.28 -386.67,-25.18 -646.16,-47.87 -117.7,204.6 -370.71,161.37 -446.59,-39.93l234.89 18.3 -51.16 -80.92c-13.09,-15.69 -39.1,-37.96 -50.35,-48.9 27.1,-25.7 22.45,-28.68 116.71,-39.9 54.55,-6.48 100.21,-8.96 156.14,-18.84 229.67,-40.56 525.83,-155.78 629.43,-338.8 -56.1,-42.85 -56.21,-23.45 -96.95,-82.95 11.09,-57.37 24.11,-65.06 48.63,-98.58zm-3388.46 74.18c59.15,-60.26 112.69,-62.72 213.96,-60.46 8.13,85.56 11.98,114.61 40.17,178.25l146.07 9.44 -23.14 -139.86c224,56.34 222.59,341.62 -5.57,336.51 -147.49,-3.3 -356.74,-209.72 -371.49,-323.88zm2340.31 304.7c20.62,-413.57 140.48,-505.39 249.47,-805.33 100.38,31.97 142.86,95.55 265.6,87.89 145.99,-9.11 594.54,-252.84 713.29,148.55 -318.3,103 -840.5,-8.3 -984.98,380.31 -19.44,52.27 -7.59,122.32 -243.38,188.58zm-2680.3 -569.66c61.34,-160.58 198.34,-284.3 436.96,-218.66 500.37,137.64 276.89,52.45 532.95,-10.44 136.77,194.18 239.83,522.4 263.02,801.39 -403.1,-84.87 -118.14,-285.69 -483.09,-433.16 -219.2,-88.58 -523.15,-74.53 -749.84,-139.13zm1553.92 -90.05c-96.17,-100.99 -141.5,-258.85 -241.38,-340.69 14.04,397.78 156.25,643.93 14.6,1049.26 -72.99,-69.1 -50.92,-170.08 -49.65,-310.25 0.99,-110.23 6.64,-231.6 -10.2,-340.09 -32.58,-210.14 -137.63,-357.26 -179.34,-534.87 -308.98,77.73 -218.53,207.9 -807.13,152.38 19.32,-145.9 171.32,-112.75 277.33,-204.18 -469.97,-7.94 -980.99,423.84 -964.17,880.62 123.42,-260.66 36.44,-92.98 178.66,-293.21 -30.91,111.23 -279.6,668.14 -71.59,743.09 90.91,32.74 177.68,11.46 261.57,17.58 -51.19,87.84 -32.16,107.54 -114.2,187.05 -57.63,55.86 -123.02,84.13 -189.15,132.51 178.95,129.64 393.85,95.54 622.61,73.68 -47.85,165.02 -159.24,113.66 -300.25,216.67 373.79,83.9 538,-191.21 821.7,-165.97 121.79,152.96 80.63,333.08 68.83,562.26 -11.68,226.69 25.56,370.8 66.01,577.91 38.02,-265.53 47.18,-454.42 129.81,-696.46 69.17,-202.57 192.5,-430.22 312.9,-536.88 66.58,30.84 58.69,30.83 101.64,99.52 23.91,38.25 49,81.64 69.3,125.54l393.41 815.33c92.27,-99.2 187.37,-396.13 272.32,-543.39 56.54,-98.01 105.55,-160.03 159.9,-250.68 66.05,-110.16 52.12,-203.58 173.33,-256.81 343.82,444.9 386.99,1042.91 430.71,1116.79 179.06,-234.19 -59.77,-773.56 132.81,-1007.1 247.29,-44.02 373.85,197.48 810.8,170.55 -114.53,-122.31 -244.48,-44.8 -297.25,-227.04 208.77,17.17 474.63,58.68 620.92,-76.58 -141.41,-101.37 -245.65,-126.34 -296.62,-324.53 136.51,13.94 195.65,21.41 317.96,-34.35 40.8,-327.22 -60.83,-467.71 -132.97,-717.67 77.79,110.62 103.52,137.25 176.71,291.13 35.03,-454.14 -501.06,-890.05 -961.77,-879.19 103.91,80.87 224.4,58.38 279.46,190.92 -320.08,137.74 -683.96,-112.06 -809.92,-139.32 -41.01,180.7 -135.25,366.73 -180.82,576.15 -54.96,252.62 -42.01,308.01 3.63,511.56 24.22,108.02 44.76,59.72 -52.28,104.08 -142.94,-187.83 -4.4,-792.05 4.92,-1040.15l-60.46 84.78c-55.92,99.28 -99.84,206.24 -192.24,249.52 -208.49,-315 -253.98,-732.62 -287.85,-1176.76 -14.76,16.88 -15.12,15.17 -30.98,45.01l-68.28 172.18 -83.29 -217.86 -97.19 643.79c-35.16,162.47 -123.63,432.93 -222.86,524.17z"/>
   <path class="fil1" d="M3171.79 5203.89c81.2,-82.83 136.28,-76.05 48.86,-184.49 -106.87,-4.57 -179.37,58.79 -241.64,104.75 -106.22,78.37 -89.1,96.58 -66.53,257.96l116.56 -86.81c98.77,278.53 130.35,224.18 286.87,377.3 -50.03,60.18 -123.01,64.59 -210.38,108.09 296.46,72.13 391.04,10.79 648.47,-18.45 114.04,218.17 380.46,109 463.52,-59.13l-285.09 29.24c93.5,-38.05 103.83,-69.03 142.32,-164.46 -391.3,-19.74 -747.9,-132.27 -902.96,-364z"/>
   <path class="fil1" d="M7079.53 5379.76c13.76,-145.75 31.41,-182.11 -70.79,-257.95 -62.22,-46.17 -140.51,-112.1 -241.68,-101.93 -24.52,33.52 -37.54,41.21 -48.63,98.58 40.74,59.5 40.85,40.1 96.95,82.95 -103.6,183.02 -399.76,298.24 -629.43,338.8 -55.93,9.88 -101.59,12.36 -156.14,18.84 -94.26,11.22 -89.61,14.2 -116.71,39.9 11.25,10.94 37.26,33.21 50.35,48.9l51.16 80.92 -234.89 -18.3c75.88,201.3 328.89,244.53 446.59,39.93 259.49,22.69 341.44,88.15 646.16,47.87 -58.23,-71.24 -102.63,-55.56 -203.33,-97.66 41.46,-101.66 113.5,-102.84 181.94,-186.49 49.64,-60.68 70.62,-162.68 121.88,-217.33 47.44,40.54 38.11,49.53 106.57,82.97z"/>
   <path class="fil1" d="M3038.61 4829.1c226.69,64.6 530.64,50.55 749.84,139.13 364.95,147.47 79.99,348.29 483.09,433.16 -23.19,-278.99 -126.25,-607.21 -263.02,-801.39 -256.06,62.89 -32.58,148.08 -532.95,10.44 -238.62,-65.64 -375.62,58.08 -436.96,218.66z"/>
   <path class="fil1" d="M5718.91 5398.76c235.79,-66.26 223.94,-136.31 243.38,-188.58 144.48,-388.61 666.68,-277.31 984.98,-380.31 -118.75,-401.39 -567.3,-157.66 -713.29,-148.55 -122.74,7.66 -165.22,-55.92 -265.6,-87.89 -108.99,299.94 -228.85,391.76 -249.47,805.33z"/>
   <path class="fil1" d="M4519.99 8980.41c20.57,28.28 9.3,49.19 86.33,102.94 203.82,142.2 461.73,170.7 682.08,59.08 97.64,-49.46 148.91,-83.34 177.33,-160.88 -521.9,-183.34 -444.5,-131.9 -945.74,-1.14z"/>
   <path class="fil1" d="M3378.6 5094.06c14.75,114.16 224,320.58 371.49,323.88 228.16,5.11 229.57,-280.17 5.57,-336.51l23.14 139.86 -146.07 -9.44c-28.19,-63.64 -32.04,-92.69 -40.17,-178.25 -101.27,-2.26 -154.81,0.2 -213.96,60.46z"/>
   <path class="fil1" d="M6328.81 5222.61c-85.52,4.76 -157.01,14.04 -134.54,-63.21 16.61,-57.12 1.53,37.69 30.87,-70.58 -280.38,60.32 -194.69,485.38 161.7,263.79 116.77,-72.62 204.38,-103.57 201.38,-291.47l-178.37 -32.26c-37.49,63.42 -38.87,129.61 -81.04,193.73z"/>
  </g>
 </g>
</svg>
