<?xml version="1.0" encoding="UTF-8"?>
<!DOCTYPE svg PUBLIC "-//W3C//DTD SVG 1.1//EN" "http://www.w3.org/Graphics/SVG/1.1/DTD/svg11.dtd">
<!-- Creator: CorelDRAW 2018 (64-Bit) -->
<svg xmlns="http://www.w3.org/2000/svg" xml:space="preserve" width="420mm" height="222mm" version="1.1" style="shape-rendering:geometricPrecision; text-rendering:geometricPrecision; image-rendering:optimizeQuality; fill-rule:evenodd; clip-rule:evenodd"
viewBox="0 0 42000 22200"
 xmlns:xlink="http://www.w3.org/1999/xlink">
 <defs>
  <style type="text/css">
   <![CDATA[
    .str0 {stroke:#A98B98;stroke-width:20;stroke-miterlimit:22.9256}
    .fil2 {fill:#B2B3B3}
    .fil3 {fill:#6EC5E9}
    .fil4 {fill:#6EC5E9}
    .fil1 {fill:#000105}
    .fil0 {fill:#A98B98}
   ]]>
  </style>
 </defs>
 <g id="Слой_x0020_1">
  <metadata id="CorelCorpID_0Corel-Layer"/>
  <rect class="fil0 str0" x="-166.7" y="-12.52" width="42333.4" height="22225.04"/>
  <path class="fil1" d="M20453.41 13948.34c166.61,-31.29 368.5,-123.6 538.73,-129.63 125.7,-4.45 458.62,88.37 540.33,142.9 -169.53,368.38 -988.94,308.62 -1079.06,-13.27zm-4879.99 -1484.88c-29.98,-593.32 283.9,-1337.17 521.41,-1758.74 186.78,-331.53 438.6,-729.57 746.86,-958.06 63.47,-47.04 96.92,-75.67 161.82,-120.08 38.97,-26.67 124.3,-93.31 170.57,-110.42 -22.55,151.04 -193.66,426.22 -263.23,534.18 -270.14,419.2 -752.47,1060.37 -769.86,1583.43 18.59,-18.15 -0.2,3.23 24.82,-27.4 8.52,-10.43 6.69,-8.53 14.25,-18.7 288.2,-387.11 559.04,-530.67 962.14,-805.82 108.87,-74.31 253.12,-178.37 373.92,-228.84 -5.92,158.91 -98.65,355.39 -116.39,550.18 -49.51,543.47 91.25,1168.4 305.71,1654.01 24.56,-34.61 28.44,-97.45 33.64,-143.57 27.1,-240.44 129.11,-678.63 360.66,-767.23 104.55,493.25 325.98,803.95 622.32,1143.41 93.02,106.55 186.97,192.12 286.61,292.39 369.35,371.72 470.04,597.16 649.34,1102.98 26.41,74.49 52.58,145.12 81.35,215.73 14.64,35.93 25.57,65.93 40.78,99.84 5.48,12.23 21.43,43.96 26.32,52.01l13.18 19.66c1.44,2.16 6.16,12.06 7.25,9.6 1.07,-2.47 4.81,6.45 7.43,9.5 61.1,-62.09 72.57,-181.01 114.36,-264.58 24.24,-48.48 26.44,-49.77 57.76,-74.94 126.49,90.7 296.5,646.93 342.88,774.99 69.11,190.86 209.04,664.42 295.9,799.77 -4.03,-315.74 -138.19,-423.8 -32.35,-761.78 101.54,46.09 128.99,235.39 149.48,330.54 83.44,387.21 82.77,828.69 223,1181.97 22.14,-22.25 6.89,3.2 30.28,-41.81 148.91,-286.6 112.88,-1260.55 336.39,-1460.82 128.86,167.1 -16.94,542.24 -13.2,749.95 156.81,-227.4 360.87,-1110.33 578.6,-1500.82l60.45 -71.63c52.89,46.44 70.59,80.65 97.61,159.62 21.28,62.18 29.82,136.11 74.5,178.43 170.74,-176.5 263.64,-1000.34 831.72,-1517.69 308.03,-280.53 796.13,-787.85 901.53,-1428.08 260.03,107.19 349.88,545.07 376.45,912.7 28.29,-22.01 21.43,-10.93 47.78,-52.37 12.72,-20 16.33,-30.24 25.79,-51.98l121.9 -379.11c94.83,-370.22 175.56,-793.46 120.85,-1179.99 -24.9,-176 -96.85,-381.75 -108.48,-541.56 256.67,108.48 527.14,325.67 751.26,478.57 104.72,71.44 272.76,171.89 364.26,261.82 91.44,89.86 180.17,237.95 254.57,345.09 78.95,-554.73 -942.17,-1654.78 -1028.51,-2127.73 348.98,119.9 897.85,827.08 1087.86,1202.84 259.27,512.71 525.94,1040.26 518.07,1739.76 -150.66,-29.81 -235.87,-363.01 -579.52,-551.84 -166.17,-91.3 -671.85,-235.24 -894.29,-221.18 24.72,569.67 92.03,878.62 -69.92,1433.13 -96.3,329.71 -317.39,909.84 -527.27,1042.37 -51.47,-324.35 86.89,-445.31 -82.22,-882.66 -267.72,31.69 -548.75,274.22 -689.8,402.41 -107.15,97.38 -179.63,161.32 -275.51,272.36l-248.7 282.76c-74.91,99.24 -149.24,212.33 -226.12,321.61 -189.74,269.69 -438.83,783.15 -640.41,983.21 -116.63,-114.34 -33.38,-416.95 -250.34,-559.31 -52.4,100.39 -100.6,588.38 -122.13,738.46 -73.61,513.1 -269.71,1355.92 -500.85,1829.34l-55.37 101.97c-17.32,21.01 -8.16,10.59 -25.73,23.55 -70.51,-74.41 -65.03,-191.4 -150.4,-283.18 -5.31,197.83 7.07,647.7 -68.65,806.99 -162.89,-129.02 -73.73,-589.7 -103.38,-814.59 -86.16,103.68 -74.4,219.49 -146.96,300.44 -130.24,-130.52 -383.52,-997.4 -448.28,-1254.96 -72.24,-287.27 -204.6,-1352.43 -255.8,-1449.79 -209.75,103.17 -145.05,430.67 -253.13,562.02 -107.36,-106.54 -308,-500.73 -414.79,-674.89l-221.73 -325.79c-263.56,-402.67 -1014.89,-1216.61 -1439.13,-1260.91 -48.32,118.67 -83.65,255.11 -90.29,402.45 -6.96,154.33 22.95,341.31 9.6,480.03 -185.9,-92.73 -446.26,-733.68 -531.69,-1028.43 -177.3,-611.64 -62.47,-886.97 -70.44,-1452.2 -242.3,13.76 -733.16,115.12 -905.47,227.69 -287.02,187.49 -453.13,519.06 -562.89,559.72zm6536.36 -5581.95c219.9,-180.61 644.33,-842.89 763.25,-918.14 12.5,40.36 26.05,87.61 34.06,137.22 3.1,19.15 7.68,60.55 13.54,78.68l24.04 45.75c1.16,-2.49 5.21,7.26 8.23,10.54 126.5,-356.9 166.75,-598.03 353.28,-928.95 95.06,-168.64 460.24,-607.24 611.83,-669.39 400.29,414.69 556.05,932.88 272.73,1632.13 -66,-80.7 -93.53,-491 -240.98,-695.52 -44.27,-61.39 -115.14,-95.56 -153.64,-151.52 -4.25,356.2 251.02,472.67 30.08,1014.02 -184.34,451.65 -440.59,622.47 -472.37,729.14 481.35,-76.53 522.51,-547.98 658.06,-711.38 301.01,82.23 602.51,787.25 627.98,1122.4l-91.37 34.88c62.3,120 170.2,209.81 193.75,381.71 -83.84,-16.16 -128.58,-57.29 -222.56,-50.5 16.19,146.09 122.43,173.74 108.88,440.75 -72.92,-6.62 -424.83,-370.56 -526.17,-443.86 -137.32,-99.34 -382.2,-342.4 -620.45,-357.03 65.64,104.77 299.6,307.68 465.21,605.97 362.61,653.13 817.84,1573.49 899.55,2334.16 -285.02,-89.22 -554.5,-545.44 -963.58,-562.79 33.09,139.43 133.21,313.12 181.6,473.23 59.72,197.61 79.11,347.26 64.98,565.67 -64.76,-1.39 -122.07,-74.77 -243.51,-88.43 49.05,113.22 113.01,176.53 166,332.92 51.83,152.99 62.1,266.83 55.62,437.34 -68.52,-37.19 -108.35,-94.68 -163.63,-141.09 -176.66,-148.33 -326.27,-269.38 -592.42,-290.43 47.2,207.31 154.92,367.82 170.85,602.64 26.34,388.52 -215.24,779.21 -446.07,1046.41 -108.39,125.46 -224.97,279.31 -390.2,351.67 35.33,-181.76 115.86,-266.09 122.59,-511.03 5.23,-190.22 -42,-398.04 -167.72,-464.12 -13.93,465.94 -76.82,931.05 -325.93,1192.29 -242.94,254.78 -982.59,378.38 -1086.62,80.63 75.21,-94.56 107.63,-114.4 199.14,-185.69 69.62,-54.22 124.21,-129.03 116.26,-263.67 -112.67,-89.45 -312.41,-26.59 -238.3,-238.95 146.78,-66.15 346.87,18.07 515.64,5.24 83.72,-99.57 105.74,-299.25 69.25,-446.1 -122.8,-494.27 -706.64,-444.83 -1133.2,-445.47 -756,-1.14 -763.3,811.54 -594.56,891.87 234.1,15.56 434.66,-127.18 535.49,76.98 -49.82,119.05 -132.9,103.12 -265.63,142.22 21.55,376.69 262.58,258.53 322.15,486.98 -223.58,270.17 -875.97,172.61 -1087.38,-118.48 -277.02,-381.44 -313.67,-610.1 -326.54,-1175.42 -121.07,31.17 -179.74,278.73 -169.2,446.23 12.65,201.03 103.27,341.89 121.02,513.94 -89.73,-43.14 -125.84,-102.7 -203.42,-176.26 -331.56,-314.44 -670.81,-703.4 -608.3,-1218.45 27.86,-229.51 116.2,-396.38 151.73,-594.33 -462.09,41.92 -523.03,319.78 -756.13,431.89 -21.83,-448.34 93.9,-441.35 222.26,-770.91 -115.81,11.16 -178.75,89.81 -243.3,87.36 -14.44,-208.13 7.89,-373.01 65.65,-561.81 48.76,-159.45 148.87,-338.02 180.87,-474.87 -199.94,20.09 -385,150.66 -519.55,245.54 -109.2,77 -346.69,286.63 -444.94,319.96 68.65,-650.48 671.92,-2117.97 1123.88,-2660.19 58.61,-70.31 209.91,-216.35 243.16,-288.5 -253.67,30.27 -474.43,244.39 -615.55,354.56 -134.98,105.37 -365.6,393.41 -533.44,444.92 3.87,-326.88 64.21,-274.11 164.95,-476.91l-277.83 95.35c35.64,-181.05 156.99,-263.9 188.63,-393.4 -127.04,-43.64 -91.54,-117.12 -26.81,-326.77 86.75,-281 308.12,-710.16 564.09,-819.2 187.32,282.83 241.54,640.35 662.48,710.26 -27.64,-95.23 -351.86,-355.8 -486.36,-731.49 -166.69,-465.62 5.95,-668.32 74.84,-1011.75 -131.51,69.41 -211.2,172.69 -279.48,338.65 -72.66,176.65 -72.51,318.95 -118.73,507.15 -90.61,-123.01 -131.29,-214.32 -152.47,-389.93 -20.46,-169.7 -12.27,-350.41 14.68,-513.27 35.83,-216.46 166.52,-654.06 382.57,-731.48 75.6,35.85 286.84,235.7 345.94,298 451.23,475.67 528.81,1185.49 630.76,1296.56l69.24 -256.73c139.36,120.32 251.33,328.8 365.18,476.37 64.31,83.36 130.56,150.38 194.41,227.72 67.52,81.8 117.08,142.49 219.24,191.31l0.25 -195.7c135.88,54.92 195.98,106.8 382.62,138.78 335.82,57.53 705.45,29.47 1046.8,34.35 527.83,7.54 461.53,-103.74 782.65,-179.94l6.4 217.51zm-4588.24 1014.8c-10.56,7.17 17.38,-11.79 0,0zm-387.52 -2903.53c54.05,-121.47 128.61,-267.03 248.55,-298.18 71.09,600.94 93.66,1001.65 -185.41,1558.85 -124.4,248.37 -440.84,660.24 -476.13,757.92 145.1,-45.38 245.02,-141.4 400.09,-194.55 1.93,119.8 -33.99,311.31 -43.79,446 -21.24,292.05 8.37,661.26 -96.66,933.09 -104.51,270.47 -316.96,379.85 -503.92,1029.56 -112.92,392.37 -88.77,378.52 -320.8,711.51 -435.95,625.66 -584.2,1564.96 -738.77,2342.41 -53.52,269.21 -149.82,595.36 -167.18,867 70.48,-29.48 189.86,-215.66 253.38,-295.4 90.22,-113.25 144.75,-195.94 247.56,-299.87 130.19,-131.63 373.54,-418.32 632.98,-477.92 92.99,522.29 330.58,1121.87 569.46,1589.95 125.32,245.56 654.94,1119.23 967.82,1184.71 -10.74,-335.09 -91.5,-621.96 -87.62,-967.61l7.25 -323.42c244.14,47.93 702.22,417.22 808.39,538l293.13 380.11c96.93,147.78 169.18,258.04 250.48,422.14 434.99,878.11 325.9,1360.29 388.96,2287.75l44.61 -55.93c35.49,-65.72 55.04,-152.49 71.62,-223.69 26.81,-115.07 45.24,-225.51 64.08,-343.66 31.44,-197.23 47.74,-403.73 109.63,-593.71l43.31 -76.25c111.75,679.98 701.74,2008.87 992.14,2672.56 238.51,6.04 171.15,8.92 295.78,-296.56 316.1,-774.75 684.97,-1591.31 883.13,-2405.6 30.63,38.1 39.53,97.09 49.15,146.47 53.55,274.97 85.03,563.31 147.65,834.68 28.19,122.13 68.17,200.65 98.94,298.45l14.77 -26.4c35.12,-94.75 26.46,-483.7 31.33,-590.75 32.72,-718.4 162.95,-1491.63 613.56,-2050.04l304.15 -368.35c136.94,-144.98 491.75,-501.67 797.99,-549.75l12.23 355.19c9.14,323.39 -80.6,620.78 -91.8,936.17 152.52,-35.7 320.19,-261.44 427.99,-362.06 176.81,-165.06 427.79,-612.01 539.15,-821.95 275.43,-519.32 418.03,-1028.87 568.53,-1589.35 260.1,51.39 516,355.88 638.51,487.55 61.95,66.58 80.73,79.75 131.33,150.23 96.51,134.45 267.71,367.02 379.86,460.44 11.16,-104.86 -147.49,-678.91 -180.15,-847.85 -150.22,-777.16 -292.91,-1749.36 -729.43,-2367.87 -63.27,-89.65 -151.93,-205.24 -205.94,-310.61 -95.68,-186.67 -132.8,-609.75 -430.67,-1117.89 -168.69,-287.77 -250.17,-332.78 -270.67,-764.91 -7.66,-161.41 -13.38,-323.34 -25.66,-484.05 -11.28,-147.66 -43.39,-326.13 -44.52,-464.22 150.68,52.08 256.23,155.52 399.59,195.94 -85.91,-239.82 -945.52,-984.67 -655.54,-2318.21 130.53,43.32 176.43,174.41 244.98,301.82 19.49,-425.88 -297.56,-710.65 -524.55,-1003.22 -103.67,-133.63 -140.7,-165.2 -64.57,-356.66 -284.58,-9.93 -468.78,165.33 -651.4,333.72 -30.45,28.09 -50.46,47.22 -78.09,78.4l-84.19 79.44 -78.23 -76.26c-66.69,76.9 -283.87,859.14 -439.32,1162.81 -105.57,206.22 -325.46,551.85 -462.38,741.91 -58.88,81.72 -94.81,150.07 -222.22,186.7l48.65 -245.11c-375.4,94.94 -331.4,384.99 -476.04,566.89 -225.4,283.46 -1425.6,277.23 -1654.76,0.78 -54.25,-65.44 -88.16,-244.15 -167.45,-348.48 -68.85,-90.6 -151.64,-174.7 -304.73,-215.98l45.06 238.05c-205.53,-70.21 -533.7,-656.87 -680.7,-912.2 -156.75,-272.25 -359.73,-1093.14 -442.59,-1170.22 -55.24,69.01 9.6,54.33 -85.59,78.65 -93.3,-125.22 -173.57,-199.97 -301.78,-300.11 -143.29,-111.91 -305.72,-204.17 -503.92,-199.28 118.51,353.66 -126.93,365.06 -299.48,623.94 -113.6,170.45 -292.8,479.25 -289.12,734.34z"/>
  <path class="fil2" d="M23521.3 9169.36c-14.53,54.14 186.93,358.35 136.35,790.91 -98.2,66.38 -227.15,51.54 -362,53.39 35.91,182.29 189.09,293.1 331.2,354.88 -23.97,48.63 3.57,27.38 -60.6,63.58 -65.63,37.01 -182.47,55.67 -258.02,59.43 -132.32,6.6 -264.69,-21.92 -385.58,-16.23 57.29,215.5 226.72,108.64 326.34,257.21 -536.18,9.07 -610.17,-236.12 -924.83,-196.73 -215.63,358.18 53.54,825.67 -144.86,1150.83 -81.57,-109.56 -68.87,-660.33 -500.14,-1274.38 -140.84,56.54 -119.02,153.95 -194.9,284.14 -61.31,105.2 -119.91,181.2 -182.45,286.81 -95.85,161.84 -210.3,544.51 -326.11,628.56l-299.3 -622.36c-85.35,-169.45 -206.91,-515.07 -341.4,-563.12 -126.53,83.49 -286.87,394.94 -356.13,595 -127.56,368.48 -108.59,642.02 -156.37,792.69 -56.84,-167.85 -86.11,-452.45 -75.71,-649.5 12.38,-234.7 61.89,-476.19 -84.57,-634.12 -334.73,-27.75 -452.88,251.75 -930.61,193.51 31.2,-39.06 54.26,-48.47 101.27,-66.26 33.33,-12.63 66.53,-23.14 102.45,-38.11 76.87,-32.03 104.86,-58.01 126.89,-144.84 -125.47,-2.6 -250.73,25.97 -386.21,17.43 -167.07,-10.53 -202.33,-51.12 -319.27,-92.98 66,-122.21 200.82,-40.74 338.21,-382.46 -285.68,-3.99 -431.75,26.17 -381.89,-316.73 26.57,-182.65 140.49,-407.83 152.42,-535.4 -19.52,49.77 -76.56,89.26 -107.55,142.57 -26.66,45.86 -57.34,112.73 -80.8,156.55 -17.14,-519.14 562.22,-987.08 1095.28,-997.91 -49.05,59.93 -109.49,63.38 -181.57,93.88 -71.33,30.21 -107.9,58.01 -121.07,139.92 703.96,76.41 659.63,-149.19 921.02,-167.35 53.61,100.33 189.72,480.41 209.25,600.48 43.2,265.58 -32.69,521.94 51.38,748.09 41.54,-31.54 44.43,-66.64 57.66,-125.17 101.56,-449.33 -76.28,-765.22 -50.35,-1064.57 58.24,48.93 92.03,107.02 138.49,184.01 64.93,107.6 82.38,167.35 151.03,193.4 288.88,-448.91 225.42,-775.99 356.14,-1321.7l87.99 219.02c51.3,-64.02 52.74,-164.76 109.3,-218.31 47.49,104.63 51.46,1025.9 344.21,1330.12 157.37,-92.6 162.78,-252.21 282.53,-361.07 -3.02,277.81 -178.91,976.71 -0.32,1175l72.74 -21.92c7.82,-188.72 -129.06,-221.27 -10.99,-714.76 31.17,-130.3 148.56,-509.19 203.66,-622.08 242.57,31.98 444.79,295.94 924.38,156.81 -57.69,-165.37 -166.56,-115.91 -285.88,-206.01 -2.21,-1.67 -7.69,-2.97 -9.26,-8.39 -1.59,-5.48 -6.24,-5.66 -9.13,-8.72 528.36,4.84 1122.35,478.89 1093.14,996.55 -25.43,-39.75 -179.12,-297.04 -185.46,-293.59zm-5999.76 -1273.05c17.38,-11.79 -10.56,7.17 0,0zm299.97 -1628.35c46.22,-188.2 46.07,-330.5 118.73,-507.15 68.28,-165.96 147.97,-269.24 279.48,-338.65 -68.89,343.43 -241.53,546.13 -74.84,1011.75 134.5,375.69 458.72,636.26 486.36,731.49 -420.94,-69.91 -475.16,-427.43 -662.48,-710.26 -255.97,109.04 -477.34,538.2 -564.09,819.2 -64.73,209.65 -100.23,283.13 26.81,326.77 -31.64,129.5 -152.99,212.35 -188.63,393.4l277.83 -95.35c-100.74,202.8 -161.08,150.03 -164.95,476.91 167.84,-51.51 398.46,-339.55 533.44,-444.92 141.12,-110.17 361.88,-324.29 615.55,-354.56 -33.25,72.15 -184.55,218.19 -243.16,288.5 -451.96,542.22 -1055.23,2009.71 -1123.88,2660.19 98.25,-33.33 335.74,-242.96 444.94,-319.96 134.55,-94.88 319.61,-225.45 519.55,-245.54 -32,136.85 -132.11,315.42 -180.87,474.87 -57.76,188.8 -80.09,353.68 -65.65,561.81 64.55,2.45 127.49,-76.2 243.3,-87.36 -128.36,329.56 -244.09,322.57 -222.26,770.91 233.1,-112.11 294.04,-389.97 756.13,-431.89 -35.53,197.95 -123.87,364.82 -151.73,594.33 -62.51,515.05 276.74,904.01 608.3,1218.45 77.58,73.56 113.69,133.12 203.42,176.26 -17.75,-172.05 -108.37,-312.91 -121.02,-513.94 -10.54,-167.5 48.13,-415.06 169.2,-446.23 12.87,565.32 49.52,793.98 326.54,1175.42 211.41,291.09 863.8,388.65 1087.38,118.48 -59.57,-228.45 -300.6,-110.29 -322.15,-486.98 132.73,-39.1 215.81,-23.17 265.63,-142.22 -100.83,-204.16 -301.39,-61.42 -535.49,-76.98 -168.74,-80.33 -161.44,-893.01 594.56,-891.87 426.56,0.64 1010.4,-48.8 1133.2,445.47 36.49,146.85 14.47,346.53 -69.25,446.1 -168.77,12.83 -368.86,-71.39 -515.64,-5.24 -74.11,212.36 125.63,149.5 238.3,238.95 7.95,134.64 -46.64,209.45 -116.26,263.67 -91.51,71.29 -123.93,91.13 -199.14,185.69 104.03,297.75 843.68,174.15 1086.62,-80.63 249.11,-261.24 312,-726.35 325.93,-1192.29 125.72,66.08 172.95,273.9 167.72,464.12 -6.73,244.94 -87.26,329.27 -122.59,511.03 165.23,-72.36 281.81,-226.21 390.2,-351.67 230.83,-267.2 472.41,-657.89 446.07,-1046.41 -15.93,-234.82 -123.65,-395.33 -170.85,-602.64 266.15,21.05 415.76,142.1 592.42,290.43 55.28,46.41 95.11,103.9 163.63,141.09 6.48,-170.51 -3.79,-284.35 -55.62,-437.34 -52.99,-156.39 -116.95,-219.7 -166,-332.92 121.44,13.66 178.75,87.04 243.51,88.43 14.13,-218.41 -5.26,-368.06 -64.98,-565.67 -48.39,-160.11 -148.51,-333.8 -181.6,-473.23 409.08,17.35 678.56,473.57 963.58,562.79 -81.71,-760.67 -536.94,-1681.03 -899.55,-2334.16 -165.61,-298.29 -399.57,-501.2 -465.21,-605.97 238.25,14.63 483.13,257.69 620.45,357.03 101.34,73.3 453.25,437.24 526.17,443.86 13.55,-267.01 -92.69,-294.66 -108.88,-440.75 93.98,-6.79 138.72,34.34 222.56,50.5 -23.55,-171.9 -131.45,-261.71 -193.75,-381.71l91.37 -34.88c-25.47,-335.15 -326.97,-1040.17 -627.98,-1122.4 -135.55,163.4 -176.71,634.85 -658.06,711.38 31.78,-106.67 288.03,-277.49 472.37,-729.14 220.94,-541.35 -34.33,-657.82 -30.08,-1014.02 38.5,55.96 109.37,90.13 153.64,151.52 147.45,204.52 174.98,614.82 240.98,695.52 283.32,-699.25 127.56,-1217.44 -272.73,-1632.13 -151.59,62.15 -516.77,500.75 -611.83,669.39 -186.53,330.92 -226.78,572.05 -353.28,928.95 -3.02,-3.28 -7.07,-13.03 -8.23,-10.54l-24.04 -45.75c-5.86,-18.13 -10.44,-59.53 -13.54,-78.68 -8.01,-49.61 -21.56,-96.86 -34.06,-137.22 -118.92,75.25 -543.35,737.53 -763.25,918.14l-6.4 -217.51c-321.12,76.2 -254.82,187.48 -782.65,179.94 -341.35,-4.88 -710.98,23.18 -1046.8,-34.35 -186.64,-31.98 -246.74,-83.86 -382.62,-138.78l-0.25 195.7c-102.16,-48.82 -151.72,-109.51 -219.24,-191.31 -63.85,-77.34 -130.1,-144.36 -194.41,-227.72 -113.85,-147.57 -225.82,-356.05 -365.18,-476.37l-69.24 256.73c-101.95,-111.07 -179.53,-820.89 -630.76,-1296.56 -59.1,-62.3 -270.34,-262.15 -345.94,-298 -216.05,77.42 -346.74,515.02 -382.57,731.48 -26.95,162.86 -35.14,343.57 -14.68,513.27 21.18,175.61 61.86,266.92 152.47,389.93z"/>
  <path class="fil2" d="M15573.42 12463.46c109.76,-40.66 275.87,-372.23 562.89,-559.72 172.31,-112.57 663.17,-213.93 905.47,-227.69 7.97,565.23 -106.86,840.56 70.44,1452.2 85.43,294.75 345.79,935.7 531.69,1028.43 13.35,-138.72 -16.56,-325.7 -9.6,-480.03 6.64,-147.34 41.97,-283.78 90.29,-402.45 424.24,44.3 1175.57,858.24 1439.13,1260.91l221.73 325.79c106.79,174.16 307.43,568.35 414.79,674.89 108.08,-131.35 43.38,-458.85 253.13,-562.02 51.2,97.36 183.56,1162.52 255.8,1449.79 64.76,257.56 318.04,1124.44 448.28,1254.96 72.56,-80.95 60.8,-196.76 146.96,-300.44 29.65,224.89 -59.51,685.57 103.38,814.59 75.72,-159.29 63.34,-609.16 68.65,-806.99 85.37,91.78 79.89,208.77 150.4,283.18 17.57,-12.96 8.41,-2.54 25.73,-23.55l55.37 -101.97c231.14,-473.42 427.24,-1316.24 500.85,-1829.34 21.53,-150.08 69.73,-638.07 122.13,-738.46 216.96,142.36 133.71,444.97 250.34,559.31 201.58,-200.06 450.67,-713.52 640.41,-983.21 76.88,-109.28 151.21,-222.37 226.12,-321.61l248.7 -282.76c95.88,-111.04 168.36,-174.98 275.51,-272.36 141.05,-128.19 422.08,-370.72 689.8,-402.41 169.11,437.35 30.75,558.31 82.22,882.66 209.88,-132.53 430.97,-712.66 527.27,-1042.37 161.95,-554.51 94.64,-863.46 69.92,-1433.13 222.44,-14.06 728.12,129.88 894.29,221.18 343.65,188.83 428.86,522.03 579.52,551.84 7.87,-699.5 -258.8,-1227.05 -518.07,-1739.76 -190.01,-375.76 -738.88,-1082.94 -1087.86,-1202.84 86.34,472.95 1107.46,1573 1028.51,2127.73 -74.4,-107.14 -163.13,-255.23 -254.57,-345.09 -91.5,-89.93 -259.54,-190.38 -364.26,-261.82 -224.12,-152.9 -494.59,-370.09 -751.26,-478.57 11.63,159.81 83.58,365.56 108.48,541.56 54.71,386.53 -26.02,809.77 -120.85,1179.99l-121.9 379.11c-9.46,21.74 -13.07,31.98 -25.79,51.98 -26.35,41.44 -19.49,30.36 -47.78,52.37 -26.57,-367.63 -116.42,-805.51 -376.45,-912.7 -105.4,640.23 -593.5,1147.55 -901.53,1428.08 -568.08,517.35 -660.98,1341.19 -831.72,1517.69 -44.68,-42.32 -53.22,-116.25 -74.5,-178.43 -27.02,-78.97 -44.72,-113.18 -97.61,-159.62l-60.45 71.63c-217.73,390.49 -421.79,1273.42 -578.6,1500.82 -3.74,-207.71 142.06,-582.85 13.2,-749.95 -223.51,200.27 -187.48,1174.22 -336.39,1460.82 -23.39,45.01 -8.14,19.56 -30.28,41.81 -140.23,-353.28 -139.56,-794.76 -223,-1181.97 -20.49,-95.15 -47.94,-284.45 -149.48,-330.54 -105.84,337.98 28.32,446.04 32.35,761.78 -86.86,-135.35 -226.79,-608.91 -295.9,-799.77 -46.38,-128.06 -216.39,-684.29 -342.88,-774.99 -31.32,25.17 -33.52,26.46 -57.76,74.94 -41.79,83.57 -53.26,202.49 -114.36,264.58 -2.62,-3.05 -6.36,-11.97 -7.43,-9.5 -1.09,2.46 -5.81,-7.44 -7.25,-9.6l-13.18 -19.66c-4.89,-8.05 -20.84,-39.78 -26.32,-52.01 -15.21,-33.91 -26.14,-63.91 -40.78,-99.84 -28.77,-70.61 -54.94,-141.24 -81.35,-215.73 -179.3,-505.82 -279.99,-731.26 -649.34,-1102.98 -99.64,-100.27 -193.59,-185.84 -286.61,-292.39 -296.34,-339.46 -517.77,-650.16 -622.32,-1143.41 -231.55,88.6 -333.56,526.79 -360.66,767.23 -5.2,46.12 -9.08,108.96 -33.64,143.57 -214.46,-485.61 -355.22,-1110.54 -305.71,-1654.01 17.74,-194.79 110.47,-391.27 116.39,-550.18 -120.8,50.47 -265.05,154.53 -373.92,228.84 -403.1,275.15 -673.94,418.71 -962.14,805.82 -7.56,10.17 -5.73,8.27 -14.25,18.7 -25.02,30.63 -6.23,9.25 -24.82,27.4 17.39,-523.06 499.72,-1164.23 769.86,-1583.43 69.57,-107.96 240.68,-383.14 263.23,-534.18 -46.27,17.11 -131.6,83.75 -170.57,110.42 -64.9,44.41 -98.35,73.04 -161.82,120.08 -308.26,228.49 -560.08,626.53 -746.86,958.06 -237.51,421.57 -551.39,1165.42 -521.41,1758.74z"/>
  <path class="fil1" d="M22156.29 10209.42c-32.33,-79.62 -81.53,-110.54 -98.42,-159.98 87.61,-39.17 211.67,-37.77 319.1,-57.11 97.07,-17.47 195.5,-46.45 281.06,-77.77 177.59,-65 362.09,-174.36 422.91,-304.75 -38.81,-46.1 -84.27,-54.22 -95.25,-99.59 -11.8,-48.71 26.89,-82.14 47.63,-112.02 128.08,-7.38 198.28,60.11 277.22,114.84 106.2,73.67 108.93,120.29 82.22,291.2 -51.43,-15.35 -79.52,-54.79 -113.39,-82.43 -73.18,50.57 -89.98,171.98 -155.52,251.32 -80.15,97 -145.71,74.05 -194.98,199.81 75.18,56.86 175.88,34.13 219.42,120.89 -325.76,40.1 -460.32,-47.11 -732.32,-51.74 -66.12,71.61 -117.62,164.57 -279.73,147.39 -123.68,-13.11 -208.28,-94.5 -233.02,-197.54l253.07 17.48zm463.23 -801.52c68.49,9.2 153.22,16.04 206.35,45.48 4.16,151.24 -47.48,206.42 -129.57,264.72 -525.87,373.46 -615.99,-164.33 -290.33,-238.11 -33.42,143.52 -91.56,156.01 129.73,150.02l83.82 -222.11zm-3480.09 55.48c92.05,-40.07 104.78,-52.34 235.47,-51.31l46.01 204.7 171.13 9.74 -21.84 -155.35c258.3,52.4 257.13,411.96 -28.03,382.12 -159.32,-16.67 -397.35,-231.35 -402.74,-389.9zm-538.97 344.28c-46.01,-171.08 -28.67,-217.22 74.19,-293.52 69.33,-51.43 153.13,-116.93 277.85,-116.89 63.78,109.28 81.53,120.65 -48.17,190.46 60.41,287.58 715.31,422.9 1017.25,437.83 8.96,86.59 -65.56,131.59 -104.41,183.58l276.15 -18.02c-112.61,179.71 -380.34,318.83 -526.02,62.88 -199.77,13.43 -561.73,123.05 -733.68,12.51 73.87,-34.74 161.25,-65.7 223.24,-101.38 -23.93,-75.25 -45.08,-65.31 -105.49,-110.79 -33.03,-24.87 -77.38,-63.7 -99.24,-88.42 -53.93,-61.03 -76.75,-185.78 -128.69,-241.31 -31.56,22.5 -88.7,63.28 -122.98,83.07zm4920.84 -638.3c6.34,-3.45 160.03,253.84 185.46,293.59 29.21,-517.66 -564.78,-991.71 -1093.14,-996.55 2.89,3.06 7.54,3.24 9.13,8.72 1.57,5.42 7.05,6.72 9.26,8.39 119.32,90.1 228.19,40.64 285.88,206.01 -479.59,139.13 -681.81,-124.83 -924.38,-156.81 -55.1,112.89 -172.49,491.78 -203.66,622.08 -118.07,493.49 18.81,526.04 10.99,714.76l-72.74 21.92c-178.59,-198.29 -2.7,-897.19 0.32,-1175 -119.75,108.86 -125.16,268.47 -282.53,361.07 -292.75,-304.22 -296.72,-1225.49 -344.21,-1330.12 -56.56,53.55 -58,154.29 -109.3,218.31l-87.99 -219.02c-130.72,545.71 -67.26,872.79 -356.14,1321.7 -68.65,-26.05 -86.1,-85.8 -151.03,-193.4 -46.46,-76.99 -80.25,-135.08 -138.49,-184.01 -25.93,299.35 151.91,615.24 50.35,1064.57 -13.23,58.53 -16.12,93.63 -57.66,125.17 -84.07,-226.15 -8.18,-482.51 -51.38,-748.09 -19.53,-120.07 -155.64,-500.15 -209.25,-600.48 -261.39,18.16 -217.06,243.76 -921.02,167.35 13.17,-81.91 49.74,-109.71 121.07,-139.92 72.08,-30.5 132.52,-33.95 181.57,-93.88 -533.06,10.83 -1112.42,478.77 -1095.28,997.91 23.46,-43.82 54.14,-110.69 80.8,-156.55 30.99,-53.31 88.03,-92.8 107.55,-142.57 -11.93,127.57 -125.85,352.75 -152.42,535.4 -49.86,342.9 96.21,312.74 381.89,316.73 -137.39,341.72 -272.21,260.25 -338.21,382.46 116.94,41.86 152.2,82.45 319.27,92.98 135.48,8.54 260.74,-20.03 386.21,-17.43 -22.03,86.83 -50.02,112.81 -126.89,144.84 -35.92,14.97 -69.12,25.48 -102.45,38.11 -47.01,17.79 -70.07,27.2 -101.27,66.26 477.73,58.24 595.88,-221.26 930.61,-193.51 146.46,157.93 96.95,399.42 84.57,634.12 -10.4,197.05 18.87,481.65 75.71,649.5 47.78,-150.67 28.81,-424.21 156.37,-792.69 69.26,-200.06 229.6,-511.51 356.13,-595 134.49,48.05 256.05,393.67 341.4,563.12l299.3 622.36c115.81,-84.05 230.26,-466.72 326.11,-628.56 62.54,-105.61 121.14,-181.61 182.45,-286.81 75.88,-130.19 54.06,-227.6 194.9,-284.14 431.27,614.05 418.57,1164.82 500.14,1274.38 198.4,-325.16 -70.77,-792.65 144.86,-1150.83 314.66,-39.39 388.65,205.8 924.83,196.73 -99.62,-148.57 -269.05,-41.71 -326.34,-257.21 120.89,-5.69 253.26,22.83 385.58,16.23 75.55,-3.76 192.39,-22.42 258.02,-59.43 64.17,-36.2 36.63,-14.95 60.6,-63.58 -142.11,-61.78 -295.29,-172.59 -331.2,-354.88 134.85,-1.85 263.8,12.99 362,-53.39 50.58,-432.56 -150.88,-736.77 -136.35,-790.91zm-1692.32 659.13c4.48,-286.27 80.68,-477.18 198.54,-716.39 31.16,-63.24 55.39,-143.6 87.92,-202.35 111.28,28.24 161.1,103.05 300.61,95.86 93.37,-4.8 212.77,-53.28 308.97,-73.33 252.73,-52.65 462.01,16.38 509.93,239.53 -144.72,88.59 -640.8,69.64 -868.23,169.79 -339.74,149.62 -160.68,418.87 -537.74,486.89zm-3078.77 -656.68c123.24,-438.63 621.49,-190.91 828.09,-165.43 116.25,14.34 150.81,-70.63 292.34,-90.64 20.97,58.49 74.9,135.73 107.08,206.51 95.15,209.37 165.27,478.26 183.58,710.58 -429.83,-60.69 -160.61,-335.57 -544.24,-490.6 -227.65,-92 -721.63,-89.12 -866.85,-170.42z"/>
  <path class="fil2" d="M18600.46 9807.66c34.28,-19.79 91.42,-60.57 122.98,-83.07 51.94,55.53 74.76,180.28 128.69,241.31 21.86,24.72 66.21,63.55 99.24,88.42 60.41,45.48 81.56,35.54 105.49,110.79 -61.99,35.68 -149.37,66.64 -223.24,101.38 171.95,110.54 533.91,0.92 733.68,-12.51 145.68,255.95 413.41,116.83 526.02,-62.88l-276.15 18.02c38.85,-51.99 113.37,-96.99 104.41,-183.58 -301.94,-14.93 -956.84,-150.25 -1017.25,-437.83 129.7,-69.81 111.95,-81.18 48.17,-190.46 -124.72,-0.04 -208.52,65.46 -277.85,116.89 -102.86,76.3 -120.2,122.44 -74.19,293.52z"/>
  <path class="fil2" d="M23080.94 9609.81c-60.82,130.39 -245.32,239.75 -422.91,304.75 -85.56,31.32 -183.99,60.3 -281.06,77.77 -107.43,19.34 -231.49,17.94 -319.1,57.11 16.89,49.44 66.09,80.36 98.42,159.98l-253.07 -17.48c24.74,103.04 109.34,184.43 233.02,197.54 162.11,17.18 213.61,-75.78 279.73,-147.39 272,4.63 406.56,91.84 732.32,51.74 -43.54,-86.76 -144.24,-64.03 -219.42,-120.89 49.27,-125.76 114.83,-102.81 194.98,-199.81 65.54,-79.34 82.34,-200.75 155.52,-251.32 33.87,27.64 61.96,67.08 113.39,82.43 26.71,-170.91 23.98,-217.53 -82.22,-291.2 -78.94,-54.73 -149.14,-122.22 -277.22,-114.84 -20.74,29.88 -59.43,63.31 -47.63,112.02 10.98,45.37 56.44,53.49 95.25,99.59z"/>
  <path class="fil2" d="M18750.21 9171.81c145.22,81.3 639.2,78.42 866.85,170.42 383.63,155.03 114.41,429.91 544.24,490.6 -18.31,-232.32 -88.43,-501.21 -183.58,-710.58 -32.18,-70.78 -86.11,-148.02 -107.08,-206.51 -141.53,20.01 -176.09,104.98 -292.34,90.64 -206.6,-25.48 -704.85,-273.2 -828.09,165.43z"/>
  <path class="fil2" d="M21828.98 9828.49c377.06,-68.02 198,-337.27 537.74,-486.89 227.43,-100.15 723.51,-81.2 868.23,-169.79 -47.92,-223.15 -257.2,-292.18 -509.93,-239.53 -96.2,20.05 -215.6,68.53 -308.97,73.33 -139.51,7.19 -189.33,-67.62 -300.61,-95.86 -32.53,58.75 -56.76,139.11 -87.92,202.35 -117.86,239.21 -194.06,430.12 -198.54,716.39z"/>
  <path class="fil2" d="M20453.41 13948.34c90.12,321.89 909.53,381.65 1079.06,13.27 -81.71,-54.53 -414.63,-147.35 -540.33,-142.9 -170.23,6.03 -372.12,98.34 -538.73,129.63z"/>
  <path class="fil3" d="M19139.43 9463.38c5.39,158.55 243.42,373.23 402.74,389.9 285.16,29.84 286.33,-329.72 28.03,-382.12l21.84 155.35 -171.13 -9.74 -46.01 -204.7c-130.69,-1.03 -143.42,11.24 -235.47,51.31z"/>
  <path class="fil4" d="M22535.7 9630.01c-221.29,5.99 -163.15,-6.5 -129.73,-150.02 -325.66,73.78 -235.54,611.57 290.33,238.11 82.09,-58.3 133.73,-113.48 129.57,-264.72 -53.13,-29.44 -137.86,-36.28 -206.35,-45.48l-83.82 222.11z"/>
 </g>
</svg>
